<svg width="72" height="71" viewBox="0 0 72 71" fill="none" xmlns="http://www.w3.org/2000/svg">
<g id="facebook">
<circle id="Ellipse 92" cx="35.916" cy="35.5" r="22.5" fill="black" fill-opacity="0.9"/>
<path id="facebook_2" fill-rule="evenodd" clip-rule="evenodd" d="M0.416016 35.5C0.416016 15.8939 16.3099 0 35.916 0C55.5221 0 71.416 15.8939 71.416 35.5C71.416 55.1061 55.5221 71 35.916 71C16.3099 71 0.416016 55.1061 0.416016 35.5ZM35.916 17.75C45.6785 17.75 53.666 25.7375 53.666 35.5C53.666 44.375 47.2316 51.9188 38.3566 53.25V40.6031H42.5723L43.4598 35.5H38.5785V32.1719C38.5785 30.8406 39.2441 29.5094 41.4629 29.5094H43.6816V25.0719C43.6816 25.0719 41.6848 24.6281 39.6879 24.6281C35.6941 24.6281 33.0316 27.0688 33.0316 31.5063V35.5H28.5941V40.6031H33.0316V53.0281C24.6004 51.6969 18.166 44.375 18.166 35.5C18.166 25.7375 26.1535 17.75 35.916 17.75Z" fill="#F7F7F7"/>
</g>
</svg>
