<svg width="72" height="71" viewBox="0 0 72 71" fill="none" xmlns="http://www.w3.org/2000/svg">
<g id="instagram">
<circle id="Ellipse 94" cx="35.916" cy="35.5" r="25.5" fill="black" fill-opacity="0.9"/>
<g id="instagram_2">
<path d="M35.916 41.7125C32.5879 41.7125 29.7035 39.05 29.7035 35.5C29.7035 32.1719 32.366 29.2875 35.916 29.2875C39.2441 29.2875 42.1285 31.95 42.1285 35.5C42.1285 38.8281 39.2441 41.7125 35.916 41.7125Z" fill="#F7F7F7"/>
<path fill-rule="evenodd" clip-rule="evenodd" d="M43.4598 20.4125H28.3723C26.5973 20.6344 25.7098 20.8562 25.0441 21.0781C24.1566 21.3 23.491 21.7437 22.8254 22.4094C22.2987 22.9361 22.0498 23.4628 21.749 24.0994C21.6698 24.2672 21.5867 24.4431 21.4941 24.6281C21.4598 24.7311 21.4202 24.8394 21.3777 24.9554C21.1456 25.5896 20.8285 26.4558 20.8285 27.9562V43.0437C21.0504 44.8187 21.2723 45.7062 21.4941 46.3719C21.716 47.2594 22.1598 47.925 22.8254 48.5906C23.3521 49.1173 23.8788 49.3662 24.5154 49.667C24.6833 49.7463 24.8589 49.8293 25.0441 49.9219C25.1471 49.9562 25.2554 49.9958 25.3714 50.0383C26.0056 50.2704 26.8719 50.5875 28.3723 50.5875H43.4598C45.2348 50.3656 46.1223 50.1437 46.7879 49.9219C47.6754 49.7 48.341 49.2562 49.0066 48.5906C49.5333 48.0639 49.7822 47.5372 50.083 46.9006C50.1623 46.7327 50.2453 46.5571 50.3379 46.3719C50.3722 46.2689 50.4118 46.1606 50.4543 46.0446C50.6864 45.4104 51.0035 44.5442 51.0035 43.0437V27.9562C50.7816 26.1812 50.5598 25.2937 50.3379 24.6281C50.116 23.7406 49.6723 23.075 49.0066 22.4094C48.4799 21.8827 47.9532 21.6338 47.3166 21.333C47.1489 21.2538 46.9728 21.1706 46.7879 21.0781C46.6849 21.0438 46.5766 21.0042 46.4606 20.9617C45.8264 20.7296 44.9602 20.4125 43.4598 20.4125ZM35.916 25.9594C30.591 25.9594 26.3754 30.175 26.3754 35.5C26.3754 40.825 30.591 45.0406 35.916 45.0406C41.241 45.0406 45.4566 40.825 45.4566 35.5C45.4566 30.175 41.241 25.9594 35.916 25.9594ZM47.8973 25.7375C47.8973 26.9629 46.9039 27.9562 45.6785 27.9562C44.4531 27.9562 43.4598 26.9629 43.4598 25.7375C43.4598 24.5121 44.4531 23.5187 45.6785 23.5187C46.9039 23.5187 47.8973 24.5121 47.8973 25.7375Z" fill="#F7F7F7"/>
<path fill-rule="evenodd" clip-rule="evenodd" d="M0.416016 35.5C0.416016 15.8939 16.3099 0 35.916 0C55.5221 0 71.416 15.8939 71.416 35.5C71.416 55.1061 55.5221 71 35.916 71C16.3099 71 0.416016 55.1061 0.416016 35.5ZM28.3723 17.0844H43.4598C45.4566 17.3062 46.7879 17.5281 47.8973 17.9719C49.2285 18.6375 50.116 19.0812 51.2254 20.1906C52.3348 21.3 53.0004 22.4094 53.4441 23.5187C53.8879 24.6281 54.3316 25.9594 54.3316 27.9562V43.0437C54.1098 45.0406 53.8879 46.3719 53.4441 47.4812C52.7785 48.8125 52.3348 49.7 51.2254 50.8094C50.116 51.9187 49.0066 52.5844 47.8973 53.0281C46.7879 53.4719 45.4566 53.9156 43.4598 53.9156H28.3723C26.3754 53.6937 25.0441 53.4719 23.9348 53.0281C22.6035 52.3625 21.716 51.9187 20.6066 50.8094C19.4973 49.7 18.8316 48.5906 18.3879 47.4812C17.9441 46.3719 17.5004 45.0406 17.5004 43.0437V27.9562C17.7223 25.9594 17.9441 24.6281 18.3879 23.5187C19.0535 22.1875 19.4973 21.3 20.6066 20.1906C21.716 19.0812 22.8254 18.4156 23.9348 17.9719C25.0441 17.5281 26.3754 17.0844 28.3723 17.0844Z" fill="#F7F7F7"/>
</g>
</g>
</svg>
