<svg width="72" height="71" viewBox="0 0 72 71" fill="none" xmlns="http://www.w3.org/2000/svg">
<g id="tik_tok">
<circle id="Ellipse 95" cx="35.3244" cy="36.0916" r="30.175" fill="black" fill-opacity="0.9"/>
<path id="tik_tok_2" fill-rule="evenodd" clip-rule="evenodd" d="M35.916 0C16.3099 0 0.416016 15.8939 0.416016 35.5C0.416016 55.1061 16.3099 71 35.916 71C55.5221 71 71.416 55.1061 71.416 35.5C71.416 15.8939 55.5221 0 35.916 0ZM42.8346 17.75C42.8346 18.2775 42.8839 18.797 42.9746 19.2998C43.4112 21.6241 44.7867 23.6187 46.6973 24.8631C48.0315 25.7369 49.6127 26.2397 51.3174 26.2397L51.3171 27.5996V32.339C48.1546 32.339 45.2229 31.3252 42.8344 29.6107V42.0156C42.8344 48.2056 37.7945 53.25 31.6097 53.25C29.2214 53.25 26.9977 52.4915 25.1776 51.214C22.2788 49.1781 20.3848 45.8152 20.3848 42.0156C20.3848 35.8173 25.4166 30.7813 31.6014 30.7894C32.1203 30.7894 32.6226 30.8306 33.1168 30.8966V32.339L33.0987 32.3476L33.1167 32.3472V37.1278C32.6391 36.9794 32.1285 36.8888 31.6014 36.8888C28.7766 36.8888 26.4789 39.1885 26.4789 42.0156C26.4789 43.9856 27.599 45.6917 29.2296 46.5572C29.2448 46.578 29.2602 46.5988 29.2757 46.6194L29.3031 46.6554C29.2843 46.6192 29.2627 46.5837 29.2379 46.5489C29.9543 46.9281 30.7614 47.1423 31.6179 47.1423C34.3767 47.1423 36.6333 44.9417 36.7321 42.2052L36.7403 17.75H42.8346Z" fill="#F7F7F7"/>
</g>
</svg>
