<svg width="72" height="71" viewBox="0 0 72 71" fill="none" xmlns="http://www.w3.org/2000/svg">
<g id="twitter">
<circle id="Ellipse 93" cx="36.416" cy="35" r="24" fill="black" fill-opacity="0.9"/>
<path id="twitter_2" fill-rule="evenodd" clip-rule="evenodd" d="M0.416016 35.5C0.416016 15.8939 16.3099 0 35.916 0C55.5221 0 71.416 15.8939 71.416 35.5C71.416 55.1061 55.5221 71 35.916 71C16.3099 71 0.416016 55.1061 0.416016 35.5ZM49.4504 25.5156C51.0035 25.2937 52.3348 25.0719 53.666 24.4062C52.7785 25.9594 51.4473 27.2906 49.8941 28.1781C50.3379 38.6063 42.7941 49.9219 29.2598 49.9219C25.266 49.9219 21.4941 48.5906 18.166 46.5938C21.9379 47.0375 25.9316 45.9281 28.5941 43.9312C25.266 43.9312 22.6035 41.7125 21.716 38.8281C22.8254 39.05 23.9348 38.8281 25.0441 38.6063C21.716 37.7188 19.2754 34.6125 19.2754 31.2844C20.3848 31.7281 21.4941 32.1719 22.6035 32.1719C19.4973 29.9531 18.3879 25.7375 20.3848 22.4094C24.1566 26.8469 29.4816 29.7312 35.4723 29.9531C34.3629 25.5156 37.9129 21.0781 42.5723 21.0781C44.5691 21.0781 46.566 21.9656 47.8973 23.2969C49.6723 22.8531 51.2254 22.4094 52.5566 21.5219C52.1129 23.2969 51.0035 24.6281 49.4504 25.5156Z" fill="#F7F7F7"/>
</g>
</svg>
